<svg xmlns="http://www.w3.org/2000/svg" viewBox="0 0 512 640" x="0px" y="0px" fill="#62e18b"><title>Uptrend, Graph, Trader, cryptocurrency, bitcoin, trend</title><rect x="5.56" y="360" width="500.879" height="16" transform="translate(-137.548 153.337) rotate(-26.565)"/><path d="M453.47,24.411l-48,16,5.06,15.179,32.624-10.875L372.1,250.763l-103.16-81.054a8,8,0,0,0-12.7,4.35l-37.69,150.763-135.3-60.133A8,8,0,0,0,72.337,269.7l-48,160,15.325,4.6L85.052,283l135.7,60.311a8,8,0,0,0,11.01-5.37l37.005-148.021,102.291,80.372a8,8,0,0,0,12.505-3.683L457.969,50.831,473.14,76.116l13.72-8.232-24-40A8,8,0,0,0,453.47,24.411Z"/></svg>